<?xml version="1.0" encoding="UTF-8"?>
<svg xmlns="http://www.w3.org/2000/svg" xmlns:se="https://standardebooks.org/vocab/1.0" height="590" version="1.1" viewBox="0 0 1400 589.99879" se:generated-from="1fd6d8235928ffba6c9336d236f7a0fced549d88">
	<path d="M 88.308558,66.843806 106.64828,66.843806 106.64828,128.60001 124.23944,128.60001 124.23944,66.843806 142.57916,66.843806 142.57916,51.404756 88.308558,51.404756 88.308558,66.843806 Z"/>
	<path d="M 171.5053,97.628336 196.39492,97.628336 196.39492,128.60001 213.98608,128.60001 213.98608,51.404756 196.39492,51.404756 196.39492,82.189286 171.5053,82.189286 171.5053,51.404756 153.91414,51.404756 153.91414,128.60001 171.5053,128.60001 171.5053,97.628336 Z"/>
	<path d="M 274.3532,51.404756 230.18816,51.404756 230.18816,128.60001 274.3532,128.60001 274.3532,113.16096 247.77932,113.16096 247.77932,97.628336 273.23036,97.628336 273.23036,82.189286 247.77932,82.189286 247.77932,66.843806 274.3532,66.843806 274.3532,51.404756 Z"/>
	<path d="M 320.05162,51.404756 320.05162,128.60001 349.33903,128.60001 C 365.3395,128.60001 374.60293,119.80443 374.60293,107.07891 374.60293,94.634096 367.77232,89.300606 358.13461,87.616346 364.68451,84.247826 367.77232,78.165776 367.77232,71.054456 367.77232,56.363966 357.29248,51.404756 344.00554,51.404756 L 320.05162,51.404756 Z M 337.64278,81.627866 337.64278,64.972406 339.04633,64.972406 C 346.71907,64.972406 350.74258,67.311656 350.74258,72.832286 350.74258,79.288616 346.6255,81.627866 339.04633,81.627866 L 337.64278,81.627866 Z M 337.64278,115.03236 337.64278,96.786206 343.16341,96.786206 C 351.49114,96.786206 356.07607,99.312596 356.07607,106.42392 356.07607,112.50597 351.49114,115.03236 343.16341,115.03236 L 337.64278,115.03236 Z"/>
	<path d="M 383.90861,89.955596 C 383.90861,112.50597 400.00265,130.00356 422.83373,130.00356 445.00982,130.00356 461.66528,112.50597 461.66528,89.955596 461.66528,67.405226 444.26126,50.001206 422.83373,50.001206 401.59334,50.001206 383.90861,67.405226 383.90861,89.955596 Z M 402.90332,89.955596 C 402.90332,78.446486 409.26608,66.937376 422.83373,66.937376 436.49495,66.937376 442.67057,78.446486 442.67057,89.955596 442.67057,101.46471 436.86923,112.97382 422.83373,112.97382 408.42395,112.97382 402.90332,101.46471 402.90332,89.955596 Z"/>
	<path d="M 470.9651,89.955596 C 470.9651,112.50597 487.05914,130.00356 509.89022,130.00356 532.06631,130.00356 548.72177,112.50597 548.72177,89.955596 548.72177,67.405226 531.31775,50.001206 509.89022,50.001206 488.64983,50.001206 470.9651,67.405226 470.9651,89.955596 Z M 489.95981,89.955596 C 489.95981,78.446486 496.32257,66.937376 509.89022,66.937376 523.55144,66.937376 529.72706,78.446486 529.72706,89.955596 529.72706,101.46471 523.92572,112.97382 509.89022,112.97382 495.48044,112.97382 489.95981,101.46471 489.95981,89.955596 Z"/>
	<path d="M 631.75478,128.60001 595.8239,87.990626 626.88914,51.404756 605.55518,51.404756 579.07487,82.937846 579.07487,51.404756 561.48371,51.404756 561.48371,128.60001 579.07487,128.60001 579.07487,95.850506 607.52015,128.60001 631.75478,128.60001 Z"/>
	<path d="M 667.25697,89.955596 C 667.25697,112.50597 683.35101,130.00356 706.18209,130.00356 728.35818,130.00356 745.01364,112.50597 745.01364,89.955596 745.01364,67.405226 727.60962,50.001206 706.18209,50.001206 684.9417,50.001206 667.25697,67.405226 667.25697,89.955596 Z M 686.25168,89.955596 C 686.25168,78.446486 692.61444,66.937376 706.18209,66.937376 719.84331,66.937376 726.01893,78.446486 726.01893,89.955596 726.01893,101.46471 720.21759,112.97382 706.18209,112.97382 691.77231,112.97382 686.25168,101.46471 686.25168,89.955596 Z"/>
	<path d="M 802.40847,51.404756 757.77558,51.404756 757.77558,128.60001 775.36674,128.60001 775.36674,97.628336 800.34993,97.628336 800.34993,82.189286 775.36674,82.189286 775.36674,66.843806 802.40847,66.843806 802.40847,51.404756 Z"/>
	<path d="M 897.73116,128.60001 917.19372,128.60001 939.18267,51.404756 919.72011,51.404756 906.52674,104.36538 906.05889,104.36538 892.02339,51.404756 878.73645,51.404756 864.70095,104.36538 864.2331,104.36538 851.03973,51.404756 831.4836,51.404756 853.47255,128.60001 873.02868,128.60001 885.37992,85.277096 897.73116,128.60001 Z"/>
	<path d="M 942.01594,89.955596 C 942.01594,112.50597 958.10998,130.00356 980.94106,130.00356 1003.1172,130.00356 1019.7726,112.50597 1019.7726,89.955596 1019.7726,67.405226 1002.3686,50.001206 980.94106,50.001206 959.70067,50.001206 942.01594,67.405226 942.01594,89.955596 Z M 961.01065,89.955596 C 961.01065,78.446486 967.37341,66.937376 980.94106,66.937376 994.60228,66.937376 1000.7779,78.446486 1000.7779,89.955596 1000.7779,101.46471 994.97656,112.97382 980.94106,112.97382 966.53128,112.97382 961.01065,101.46471 961.01065,89.955596 Z"/>
	<path d="M 1050.1257,80.692166 1050.3128,80.692166 1081.0038,128.60001 1098.595,128.60001 1098.595,51.404756 1081.0038,51.404756 1081.0038,99.312596 1080.8167,99.312596 1050.1257,51.404756 1032.5345,51.404756 1032.5345,128.60001 1050.1257,128.60001 1050.1257,80.692166 Z"/>
	<path d="M 1114.8394,51.404756 1114.8394,128.60001 1137.2026,128.60001 C 1158.443,128.60001 1176.1278,112.50597 1176.1278,89.955596 1176.1278,67.498796 1158.3495,51.404756 1137.2026,51.404756 L 1114.8394,51.404756 Z M 1132.4306,112.88025 1132.4306,67.124516 1135.1441,67.124516 C 1148.2439,67.124516 1157.1331,77.136506 1157.1331,90.049166 1157.0395,102.96183 1148.1503,112.88025 1135.1441,112.88025 L 1132.4306,112.88025 Z"/>
	<path d="M 1233.0855,51.404756 1188.9204,51.404756 1188.9204,128.60001 1233.0855,128.60001 1233.0855,113.16096 1206.5116,113.16096 1206.5116,97.628336 1231.9626,97.628336 1231.9626,82.189286 1206.5116,82.189286 1206.5116,66.843806 1233.0855,66.843806 1233.0855,51.404756 Z"/>
	<path d="M 1248.1984,51.404756 1248.1984,128.60001 1265.7895,128.60001 1265.7895,98.096186 1289.3692,128.60001 1311.7324,128.60001 1285.1585,96.692636 C 1294.6091,93.698396 1300.9718,85.932086 1300.9718,74.329406 1300.9718,59.171066 1290.1177,51.404756 1275.8015,51.404756 L 1248.1984,51.404756 Z M 1265.7895,85.651376 1265.7895,65.440256 1267.8481,65.440256 C 1274.4915,65.440256 1282.445,65.908106 1282.445,75.545816 1282.445,85.183526 1274.4915,85.651376 1267.8481,85.651376 L 1265.7895,85.651376 Z"/>
	<path d="M 392.48463,231.05151 379.29079,231.05151 379.29079,288.95001 412.41575,288.95001 412.41575,277.37031 392.48463,277.37031 392.48463,231.05151 Z"/>
	<path d="M 421.30745,259.96567 C 421.30745,276.87905 433.37841,290.00271 450.50233,290.00271 467.13499,290.00271 479.62703,276.87905 479.62703,259.96567 479.62703,243.05229 466.57355,229.99881 450.50233,229.99881 434.57147,229.99881 421.30745,243.05229 421.30745,259.96567 Z M 435.55399,259.96567 C 435.55399,251.33353 440.32623,242.70139 450.50233,242.70139 460.74861,242.70139 465.38049,251.33353 465.38049,259.96567 465.38049,268.59781 461.02933,277.22995 450.50233,277.22995 439.69461,277.22995 435.55399,268.59781 435.55399,259.96567 Z"/>
	<path d="M 490.44868,231.05151 490.44868,288.95001 503.64252,288.95001 503.64252,266.07133 521.32788,288.95001 538.1009,288.95001 518.16978,265.01863 C 525.25796,262.77287 530.0302,256.94793 530.0302,248.24561 530.0302,236.87645 521.88932,231.05151 511.15178,231.05151 L 490.44868,231.05151 Z M 503.64252,256.73739 503.64252,241.57851 505.18648,241.57851 C 510.16926,241.57851 516.13456,241.92941 516.13456,249.15795 516.13456,256.38649 510.16926,256.73739 505.18648,256.73739 L 503.64252,256.73739 Z"/>
	<path d="M 545.75348,231.05151 545.75348,288.95001 562.5265,288.95001 C 578.45736,288.95001 591.72138,276.87905 591.72138,259.96567 591.72138,243.12247 578.38718,231.05151 562.5265,231.05151 L 545.75348,231.05151 Z M 558.94732,277.15977 558.94732,242.84175 560.98254,242.84175 C 570.80774,242.84175 577.47484,250.35101 577.47484,260.03585 577.40466,269.72069 570.73756,277.15977 560.98254,277.15977 L 558.94732,277.15977 Z"/>
	<path d="M 626.7559,231.05151 626.7559,288.95001 643.52893,288.95001 C 659.45979,288.95001 672.72381,276.87905 672.72381,259.96567 672.72381,243.12247 659.38961,231.05151 643.52893,231.05151 L 626.7559,231.05151 Z M 639.94975,277.15977 639.94975,242.84175 641.98497,242.84175 C 651.81017,242.84175 658.47727,250.35101 658.47727,260.03585 658.40709,269.72069 651.73999,277.15977 641.98497,277.15977 L 639.94975,277.15977 Z"/>
	<path d="M 728.06262,231.05151 714.86878,231.05151 714.86878,264.52737 C 714.86878,274.21221 711.92122,277.01941 705.46466,277.01941 699.0081,277.01941 696.06054,274.21221 696.06054,264.52737 L 696.06054,231.05151 682.8667,231.05151 682.8667,268.38727 C 682.8667,282.70399 690.72686,290.00271 705.46466,290.00271 720.20246,290.00271 728.06262,282.70399 728.06262,268.38727 L 728.06262,231.05151 Z"/>
	<path d="M 753.98612,253.01785 754.12648,253.01785 777.14552,288.95001 790.33936,288.95001 790.33936,231.05151 777.14552,231.05151 777.14552,266.98367 777.00516,266.98367 753.98612,231.05151 740.79228,231.05151 740.79228,288.95001 753.98612,288.95001 753.98612,253.01785 Z"/>
	<path d="M 823.73705,229.99881 C 814.40311,229.99881 804.85863,236.87645 804.85863,247.68417 804.85863,253.71965 808.92907,259.12351 815.87689,262.56233 822.75453,266.00115 828.93037,267.89601 828.93037,272.10681 828.93037,277.51067 823.45633,277.79139 820.57895,277.79139 814.12239,277.79139 806.40259,271.26465 806.40259,271.26465 L 799.80567,282.35309 C 799.80567,282.35309 808.01673,290.00271 821.56147,290.00271 832.86045,290.00271 843.38745,285.16029 843.38745,271.33483 843.38745,263.75539 836.29927,258.28135 829.84271,255.54433 823.24579,252.73713 817.77175,250.42119 817.77175,247.19291 817.77175,244.03481 820.15787,241.99959 824.64939,241.99959 830.61469,241.99959 836.36945,245.99985 836.36945,245.99985 L 841.70313,235.47285 C 841.70313,235.47285 834.26405,229.99881 823.73705,229.99881 Z"/>
	<path d="M 883.95991,231.05151 871.74859,231.05151 848.37865,288.95001 862.55501,288.95001 866.83599,277.37031 888.87251,277.37031 893.15349,288.95001 907.32985,288.95001 883.95991,231.05151 Z M 884.38099,265.79061 871.32751,265.79061 877.78407,248.94741 877.92443,248.94741 884.38099,265.79061 Z"/>
	<path d="M 927.71351,253.01785 927.85387,253.01785 950.87291,288.95001 964.06675,288.95001 964.06675,231.05151 950.87291,231.05151 950.87291,266.98367 950.73255,266.98367 927.71351,231.05151 914.51967,231.05151 914.51967,288.95001 927.71351,288.95001 927.71351,253.01785 Z"/>
	<path d="M 964.87901,231.05151 986.21373,262.98341 986.21373,288.95001 999.40757,288.95001 999.40757,262.98341 1020.7423,231.05151 1004.8816,231.05151 992.81065,249.57903 980.73969,231.05151 964.87901,231.05151 Z"/>
	<path d="M 497.84938,500.00143 C 491.62711,500.00143 485.26449,504.58626 485.26449,511.791 485.26449,515.81442 487.97796,519.41679 492.60958,521.7092 497.19441,524.00162 501.3114,525.26479 501.3114,528.07183 501.3114,531.6742 497.66225,531.86133 495.7441,531.86133 491.43998,531.86133 486.29374,527.51042 486.29374,527.51042 L 481.89604,534.90229 C 481.89604,534.90229 487.36977,540.00175 496.39908,540.00175 503.9313,540.00175 510.9489,536.77365 510.9489,527.5572 510.9489,522.50453 506.22372,518.85538 501.91959,517.0308 497.5219,515.15944 493.87274,513.61557 493.87274,511.46351 493.87274,509.35823 495.4634,508.00149 498.45758,508.00149 502.43422,508.00149 506.2705,510.66818 506.2705,510.66818 L 509.82609,503.65058 C 509.82609,503.65058 504.86698,500.00143 497.84938,500.00143 Z"/>
	<path d="M 528.85544,500.70319 520.06005,500.70319 520.06005,539.29999 528.85544,539.29999 528.85544,500.70319 Z"/>
	<path d="M 539.4973,500.70319 539.4973,539.29999 550.67867,539.29999 C 561.29864,539.29999 570.14082,531.25314 570.14082,519.9782 570.14082,508.75004 561.25186,500.70319 550.67867,500.70319 L 539.4973,500.70319 Z M 548.29269,531.44028 548.29269,508.5629 549.64943,508.5629 C 556.19919,508.5629 560.64367,513.56879 560.64367,520.02498 560.59688,526.48117 556.1524,531.44028 549.64943,531.44028 L 548.29269,531.44028 Z"/>
	<path d="M 587.83244,515.34658 587.92601,515.34658 603.27116,539.29999 612.06656,539.29999 612.06656,500.70319 603.27116,500.70319 603.27116,524.6566 603.1776,524.6566 587.83244,500.70319 579.03705,500.70319 579.03705,539.29999 587.83244,539.29999 587.83244,515.34658 Z"/>
	<path d="M 644.77073,500.70319 622.68868,500.70319 622.68868,539.29999 644.77073,539.29999 644.77073,531.58063 631.48407,531.58063 631.48407,523.81448 644.20932,523.81448 644.20932,516.09512 631.48407,516.09512 631.48407,508.42255 644.77073,508.42255 644.77073,500.70319 Z"/>
	<path d="M 650.61648,500.70319 664.83882,521.98991 664.83882,539.29999 673.63421,539.29999 673.63421,521.98991 687.85655,500.70319 677.28336,500.70319 669.23652,513.05416 661.18967,500.70319 650.61648,500.70319 Z"/>
	<path d="M 720.86331,523.81448 733.30786,523.81448 733.30786,539.29999 742.10325,539.29999 742.10325,500.70319 733.30786,500.70319 733.30786,516.09512 720.86331,516.09512 720.86331,500.70319 712.06792,500.70319 712.06792,539.29999 720.86331,539.29999 720.86331,523.81448 Z"/>
	<path d="M 758.03754,529.28821 C 755.09015,529.28821 752.70417,531.6742 752.70417,534.66837 752.70417,537.61576 755.09015,540.00175 758.03754,540.00175 761.03172,540.00175 763.4177,537.61576 763.4177,534.66837 763.4177,531.6742 761.03172,529.28821 758.03754,529.28821 Z"/>
	<path d="M 805.1614,500.00143 C 798.93912,500.00143 792.5765,504.58626 792.5765,511.791 792.5765,515.81442 795.28997,519.41679 799.92159,521.7092 804.50642,524.00162 808.62341,525.26479 808.62341,528.07183 808.62341,531.6742 804.97426,531.86133 803.05612,531.86133 798.75199,531.86133 793.60575,527.51042 793.60575,527.51042 L 789.20805,534.90229 C 789.20805,534.90229 794.68178,540.00175 803.71109,540.00175 811.24332,540.00175 818.26092,536.77365 818.26092,527.5572 818.26092,522.50453 813.53573,518.85538 809.2316,517.0308 804.83391,515.15944 801.18476,513.61557 801.18476,511.46351 801.18476,509.35823 802.77541,508.00149 805.76959,508.00149 809.74623,508.00149 813.58252,510.66818 813.58252,510.66818 L 817.1381,503.65058 C 817.1381,503.65058 812.179,500.00143 805.1614,500.00143 Z"/>
	<path d="M 836.16743,500.70319 827.37204,500.70319 827.37204,539.29999 836.16743,539.29999 836.16743,500.70319 Z"/>
	<path d="M 878.71599,539.29999 887.51138,539.29999 884.04936,500.70319 874.69256,500.70319 866.13109,522.97237 857.56962,500.70319 848.21282,500.70319 844.7508,539.29999 853.54619,539.29999 855.37077,516.42261 855.60469,516.42261 863.51119,539.06607 868.75099,539.06607 876.65749,516.42261 876.89141,516.42261 878.71599,539.29999 Z"/>
	<path d="M 918.11684,500.70319 896.03479,500.70319 896.03479,539.29999 918.11684,539.29999 918.11684,531.58063 904.83018,531.58063 904.83018,523.81448 917.55543,523.81448 917.55543,516.09512 904.83018,516.09512 904.83018,508.42255 918.11684,508.42255 918.11684,500.70319 Z"/>
	<path d="M 594.38019,455.34682 C 594.38019,455.7719 594.72025,455.85692 594.9753,455.85692 595.31537,455.85692 595.99549,455.89943 596.88816,455.89943 597.65331,455.89943 597.90835,456.06946 597.90835,456.7921 597.90835,459.21505 595.99549,465.8463 595.99549,469.07691 595.99549,470.90475 596.29305,472.60507 597.56829,472.60507 599.14109,472.60507 601.47903,470.0971 601.47903,470.0971 601.94661,469.587 602.71176,468.14173 602.71176,467.63164 602.71176,467.33408 602.54173,467.16405 602.28668,467.16405 601.69157,467.16405 601.09645,469.37446 599.65118,469.37446 599.2261,469.37446 598.80102,468.82186 598.80102,468.22675 598.80102,467.71665 598.80102,467.80167 600.07626,459.76766 600.41633,457.59975 601.22398,455.94194 601.22398,454.83673 601.22398,454.53917 600.92642,454.36914 600.62887,454.36914 598.20591,454.36914 597.48327,454.75171 595.78295,454.75171 L 595.35787,454.75171 C 594.89029,454.75171 594.38019,454.79422 594.38019,455.34682 Z M 598.88604,446.97275 C 598.88604,447.39783 600.03375,449.22567 600.7989,449.22567 601.18147,449.22567 602.66925,447.82291 602.66925,446.97275 602.66925,446.20761 601.8616,444.71983 601.01144,444.71983 600.24629,444.71983 598.88604,446.59018 598.88604,446.97275 Z"/>
	<path d="M 606.1124,468.5243 C 606.1124,472.52006 607.34513,472.52006 608.19529,472.52006 609.00294,472.52006 610.78828,471.6699 611.89349,470.39466 612.91368,469.20443 614.01889,467.75916 614.01889,467.33408 614.01889,466.909 613.80635,466.65395 613.50879,466.65395 612.40358,466.65395 611.9785,469.67202 609.64056,469.67202 609.08796,469.67202 608.96043,469.45948 608.96043,468.01421 608.96043,466.56894 609.47053,463.89093 610.19317,458.87499 611.55342,449.73577 610.83079,451.30856 612.40358,443.06201 612.53111,442.25436 612.82866,441.70176 612.82866,441.10665 612.82866,440.68157 612.61612,440.42652 611.93599,440.42652 610.83079,440.42652 609.89561,440.8516 606.79253,441.06414 606.23992,441.10665 606.15491,441.44671 606.15491,441.65925 606.15491,442.12684 606.53748,442.25436 607.38764,442.25436 607.89773,442.25436 607.98275,442.21185 608.62037,442.21185 609.25799,442.21185 609.68307,442.55192 609.68307,443.06201 609.68307,443.57211 609.04545,447.39783 608.32281,451.98869 607.89773,454.7092 607.68519,457.72727 607.30262,460.40528 607.21761,461.0854 606.1124,466.10135 606.1124,468.5243 Z"/>
	<path d="M 617.23754,468.5243 C 617.23754,472.52006 618.47027,472.52006 619.32043,472.52006 620.12808,472.52006 621.91342,471.6699 623.01863,470.39466 624.03882,469.20443 625.14403,467.75916 625.14403,467.33408 625.14403,466.909 624.93149,466.65395 624.63393,466.65395 623.52872,466.65395 623.10364,469.67202 620.7657,469.67202 620.2131,469.67202 620.08557,469.45948 620.08557,468.01421 620.08557,466.56894 620.59567,463.89093 621.31831,458.87499 622.67856,449.73577 621.95593,451.30856 623.52872,443.06201 623.65625,442.25436 623.9538,441.70176 623.9538,441.10665 623.9538,440.68157 623.74126,440.42652 623.06113,440.42652 621.95593,440.42652 621.02075,440.8516 617.91767,441.06414 617.36506,441.10665 617.28005,441.44671 617.28005,441.65925 617.28005,442.12684 617.66262,442.25436 618.51278,442.25436 619.02287,442.25436 619.10789,442.21185 619.74551,442.21185 620.38313,442.21185 620.80821,442.55192 620.80821,443.06201 620.80821,443.57211 620.17059,447.39783 619.44795,451.98869 619.02287,454.7092 618.81033,457.72727 618.42776,460.40528 618.34275,461.0854 617.23754,466.10135 617.23754,468.5243 Z"/>
	<path d="M 627.0084,459.68264 C 627.0084,459.9802 627.17843,460.23524 627.43348,460.23524 627.64602,460.23524 627.90107,460.06521 628.0711,459.64013 628.66621,458.27988 629.60139,457.17467 629.98396,457.17467 630.53657,457.17467 630.83412,457.59975 630.83412,458.06734 630.83412,460.66032 628.92126,465.3362 628.92126,469.92707 628.92126,471.1598 629.21882,472.64758 630.36653,472.64758 633.46962,472.64758 636.61521,468.77935 638.52807,466.05884 639.80331,464.2735 640.01585,463.33833 640.2709,463.33833 640.39842,463.33833 640.48344,463.50836 640.48344,463.80592 640.48344,464.18849 639.71829,467.54662 639.71829,470.26713 639.71829,471.58488 640.05836,472.56256 640.99353,472.56256 644.98929,472.56256 647.62478,468.22675 647.62478,467.20656 647.62478,466.82398 647.58227,466.31389 647.02967,466.31389 646.137,466.31389 645.96697,469.45948 643.37398,469.45948 642.99141,469.45948 642.43881,469.37446 642.43881,468.43929 642.43881,466.27138 645.03179,455.98444 645.03179,454.83673 645.03179,454.19911 644.30916,453.90155 643.62903,453.90155 643.20395,453.90155 642.52382,454.02908 642.3963,454.58168 641.41861,458.32238 640.22839,462.23312 637.46537,465.59125 635.46749,467.9717 633.97971,469.96958 632.61946,469.96958 632.3219,469.96958 631.85431,469.5445 631.85431,468.82186 631.85431,465.59125 633.42711,460.83036 633.42711,457.08965 633.42711,456.57956 633.34209,453.98657 631.81181,453.98657 628.96377,453.98657 627.0084,457.8973 627.0084,459.68264 Z"/>
	<path d="M 649.12916,469.88456 C 649.12916,472.13748 652.18974,472.69009 653.84755,472.69009 659.28857,472.69009 660.4788,468.65183 660.4788,467.12154 660.4788,464.2735 658.86349,463.08328 657.54575,461.5955 656.52555,460.49029 654.18761,458.74746 654.18761,457.13216 654.18761,455.85692 654.82523,454.87924 656.44054,454.87924 658.09835,454.87924 658.26838,457.25968 659.79867,457.25968 660.01121,457.25968 661.41397,457.13216 661.41397,455.81441 661.41397,454.1566 659.75616,453.604 657.46073,453.604 654.14511,453.604 651.67964,455.55936 651.67964,458.4074 651.67964,460.95788 653.29495,462.06309 654.99527,463.80592 656.52555,465.3362 657.92832,466.56894 657.92832,468.56681 657.92832,469.07691 657.63076,471.28732 654.52768,471.28732 651.93469,471.28732 652.65733,468.35427 650.48942,468.35427 649.97932,468.35427 649.12916,468.56681 649.12916,469.88456 Z"/>
	<path d="M 663.92128,455.60187 C 663.92128,456.7921 666.42926,455.85692 666.42926,456.74959 666.42926,457.8973 664.64392,464.7836 664.64392,468.69434 664.64392,472.00996 666.21672,472.69009 667.36443,472.69009 669.99993,472.69009 673.61311,469.79954 673.61311,468.69434 673.61311,468.09922 673.27304,468.09922 673.14552,468.09922 672.46539,468.09922 671.48771,469.96958 669.14977,469.96958 668.97974,469.96958 667.40694,469.88456 667.40694,467.63164 667.40694,466.95151 668.38462,461.42547 668.7672,458.78997 669.02224,457.04714 668.89472,456.282 670.12745,456.282 671.06263,456.282 672.89047,456.49454 673.5706,456.49454 674.33574,456.49454 674.59079,456.23949 674.59079,455.26181 674.59079,454.75171 674.37825,454.45416 673.48558,454.45416 673.018,454.45416 672.67793,454.49666 671.02012,454.49666 669.61736,454.49666 669.53234,454.45416 669.53234,454.19911 669.53234,453.56149 670.29748,451.56361 670.29748,451.01101 670.29748,450.62844 670.08494,450.50091 669.8724,450.50091 669.19228,450.50091 669.10726,451.05352 667.40694,452.83885 665.53659,454.79422 663.92128,454.75171 663.92128,455.60187 Z"/>
	<path d="M 676.02876,459.59762 C 676.02876,460.19274 676.36882,460.32026 676.53885,460.32026 676.75139,460.32026 676.87892,460.19274 677.00644,460.06521 677.26149,459.76766 677.60155,457.21718 679.34438,457.21718 680.10952,457.21718 680.78965,457.98232 680.78965,460.10772 680.78965,463.29582 678.96181,469.5445 678.96181,471.24482 678.96181,472.26501 679.81197,472.35002 680.23705,472.35002 L 680.44959,472.35002 C 681.97988,472.35002 681.89486,472.35002 682.83004,465.12366 L 683.04258,463.7209 C 683.25512,461.93556 684.31782,456.36702 686.23068,456.36702 687.76096,456.36702 687.59093,458.15235 688.52611,458.15235 689.29125,458.15235 689.37627,456.8346 689.46128,456.53705 689.58881,456.06946 689.92887,455.51686 689.92887,454.96425 689.92887,454.36914 689.46128,453.6465 688.35608,453.6465 685.21048,453.6465 683.08508,458.02483 682.78753,458.02483 682.70251,458.02483 682.66,457.98232 681.5973,455.2193 681.34226,454.53917 680.91718,453.73152 680.02451,453.73152 679.64194,453.73152 676.02876,454.75171 676.02876,459.59762 Z"/>
	<path d="M 689.62002,467.33408 C 689.62002,470.0971 690.13012,472.81761 694.16838,472.81761 698.20664,472.81761 701.7348,467.71665 701.94734,467.71665 702.2449,467.71665 701.86233,472.47755 704.58284,472.47755 705.73055,472.47755 707.64341,470.52218 708.70611,468.99189 709.25872,468.22675 709.47126,467.58913 709.47126,467.16405 709.47126,466.99402 709.42875,466.69646 709.08869,466.69646 708.28103,466.69646 707.38837,469.45948 705.9856,469.45948 705.17795,469.45948 704.54033,468.05672 704.54033,466.95151 704.54033,465.3362 704.96541,463.38084 705.30547,461.51048 705.64554,459.59762 705.90059,457.64226 706.28316,456.06946 706.58071,454.83673 707.13332,453.81654 707.13332,453.13641 707.13332,452.66882 706.92078,452.49879 706.66573,452.49879 705.81557,452.49879 705.30547,454.58168 704.45531,454.58168 703.05255,454.58168 702.15988,454.11409 700.84213,454.11409 699.73693,454.11409 698.88677,454.32663 697.73905,454.87924 695.48613,455.94194 693.53076,457.98232 692.00047,460.40528 690.68272,462.53068 689.62002,464.95363 689.62002,467.33408 Z M 692.59558,467.07903 C 692.59558,466.31389 692.6806,465.54874 692.80812,464.7836 693.19069,462.57318 694.21089,460.66032 695.44362,458.61994 696.71886,456.45203 698.97178,455.17679 700.71461,455.17679 701.60728,455.17679 703.52014,455.47435 703.52014,456.66457 703.52014,456.7921 702.37242,464.61357 701.35223,466.65395 700.96966,467.4191 698.97178,470.47967 695.91121,470.47967 694.12587,470.47967 692.59558,469.20443 692.59558,467.07903 Z"/>
	<path d="M 711.49371,455.60187 C 711.49371,456.7921 714.00168,455.85692 714.00168,456.74959 714.00168,457.8973 712.21635,464.7836 712.21635,468.69434 712.21635,472.00996 713.78914,472.69009 714.93686,472.69009 717.57235,472.69009 721.18553,469.79954 721.18553,468.69434 721.18553,468.09922 720.84547,468.09922 720.71795,468.09922 720.03782,468.09922 719.06013,469.96958 716.72219,469.96958 716.55216,469.96958 714.97937,469.88456 714.97937,467.63164 714.97937,466.95151 715.95705,461.42547 716.33962,458.78997 716.59467,457.04714 716.46715,456.282 717.69988,456.282 718.63505,456.282 720.4629,456.49454 721.14303,456.49454 721.90817,456.49454 722.16322,456.23949 722.16322,455.26181 722.16322,454.75171 721.95068,454.45416 721.05801,454.45416 720.59042,454.45416 720.25036,454.49666 718.59255,454.49666 717.18978,454.49666 717.10477,454.45416 717.10477,454.19911 717.10477,453.56149 717.86991,451.56361 717.86991,451.01101 717.86991,450.62844 717.65737,450.50091 717.44483,450.50091 716.7647,450.50091 716.67969,451.05352 714.97937,452.83885 713.10901,454.79422 711.49371,454.75171 711.49371,455.60187 Z"/>
	<path d="M 723.74266,465.93132 C 723.74266,469.71453 725.0604,472.69009 730.45892,472.69009 734.15712,472.69009 737.85531,469.71453 737.85531,468.73684 737.85531,468.4818 737.68528,468.31176 737.34522,468.31176 736.87763,468.31176 735.17731,470.13961 732.75435,470.13961 728.54606,470.13961 726.6332,468.01421 726.6332,464.82611 726.6332,463.7209 726.76072,463.08328 727.35584,463.08328 731.35159,463.04077 733.64702,462.1056 734.02959,461.93556 734.83724,461.5955 738.15287,459.85267 738.15287,456.7921 738.15287,454.92174 736.45255,453.6465 734.45467,453.6465 732.07422,453.6465 730.11886,454.41165 728.54606,455.89943 725.61301,458.61994 723.74266,462.27563 723.74266,465.93132 Z M 727.22831,461.51048 C 727.22831,460.95788 728.206,458.23737 729.48124,456.91962 730.58644,455.7719 731.90419,454.92174 732.96689,454.92174 733.68953,454.92174 735.21982,455.30432 735.21982,456.91962 735.21982,459.59762 731.73416,462.36064 727.61088,462.36064 727.31333,462.36064 727.22831,461.80804 727.22831,461.51048 Z"/>
	<path d="M 740.20787,466.86649 C 740.20787,470.05459 741.69565,472.52006 745.30883,472.52006 749.51712,472.52006 751.68503,467.75916 752.0676,467.75916 752.66271,467.75916 751.68503,472.52006 754.66059,472.52006 757.42361,472.52006 760.10161,468.22675 760.10161,467.33408 760.10161,467.16405 759.97409,466.95151 759.63402,466.95151 758.95389,466.95151 757.97621,469.587 756.10586,469.587 755.12817,469.587 755.00065,468.69434 755.00065,467.75916 755.00065,466.48392 755.42573,463.80592 755.89332,460.57531 758.27377,443.18954 758.69885,441.82928 758.69885,440.72407 758.69885,440.3415 758.40129,440.00144 758.01872,440.00144 756.871,440.00144 757.12605,440.08645 754.7456,440.68157 753.55538,440.97912 752.0676,440.80909 752.0676,441.53173 752.0676,441.82928 752.32265,441.99931 752.74773,441.99931 752.79023,441.99931 753.76792,441.95681 754.23551,441.95681 754.87313,441.95681 755.46824,442.38189 755.46824,443.01951 755.46824,443.31706 754.06547,454.49666 753.93795,454.49666 752.74773,454.49666 751.89757,453.94406 750.79236,453.94406 745.73391,453.94406 740.20787,460.27775 740.20787,466.86649 Z M 743.18343,465.67627 C 743.18343,461.21293 746.66908,454.83673 750.57982,454.83673 751.72753,454.83673 753.42785,455.38933 753.42785,456.53705 753.42785,458.23737 752.79023,465.71878 751.08991,467.84418 749.98471,469.24694 748.32689,470.05459 746.79661,470.05459 744.20362,470.05459 743.18343,468.14173 743.18343,465.67627 Z"/>
	<path d="M 771.41007,469.16192 C 771.41007,471.62739 774.08807,472.7326 776.59605,472.7326 783.18479,472.7326 788.20073,465.12366 788.20073,459.34258 788.20073,456.57956 786.71295,453.94406 783.52485,453.94406 778.63643,453.94406 776.63855,457.8973 776.04344,457.8973 775.95843,457.8973 775.8309,457.55724 775.8309,457.25968 775.8309,454.19911 778.55141,441.53173 778.55141,440.76658 778.55141,440.29899 778.21135,440.00144 777.74376,440.00144 777.48871,440.00144 776.72357,440.25649 775.06576,440.46903 773.11039,440.72407 771.92017,440.68157 771.92017,441.53173 771.92017,442.12684 772.26023,442.12684 772.72782,442.12684 773.36544,442.12684 773.83303,442.04182 774.47065,442.04182 775.32081,442.04182 775.53335,442.33938 775.53335,442.55192 775.53335,443.57211 775.2783,445.05989 774.89573,446.88773 774.25811,450.03332 773.74801,454.1566 772.98287,458.57743 772.38775,462.02058 771.41007,466.44141 771.41007,469.16192 Z M 774.2156,468.65183 C 774.2156,468.22675 774.68319,463.67839 775.91592,460.32026 777.27617,456.62206 780.03919,456.19698 781.05939,456.19698 783.39733,456.19698 785.22517,458.15235 785.22517,460.5328 785.22517,465.42122 781.31443,471.54237 777.48871,471.54237 774.85322,471.54237 774.2156,470.0971 774.2156,468.65183 Z"/>
	<path d="M 789.84591,477.49349 C 789.84591,479.44886 791.54623,480.00146 793.37408,480.00146 797.36983,480.00146 800.09034,475.15555 802.08821,470.0971 804.59619,463.76341 805.61638,457.8973 805.61638,455.98444 805.61638,454.6667 804.89374,453.73152 803.95857,453.73152 802.93837,453.73152 802.51329,454.53917 802.51329,455.30432 802.51329,456.45203 803.57599,457.30219 803.57599,458.53492 803.57599,461.38296 802.64082,465.93132 802.04571,465.93132 801.57812,465.93132 797.53986,453.85904 793.41658,453.85904 790.8236,453.85904 789.97344,457.55724 789.97344,459.34258 789.97344,460.06521 790.14347,460.27775 790.39852,460.27775 791.67376,460.27775 790.78109,457.08965 793.24655,457.08965 795.49948,457.08965 800.17535,468.05672 800.17535,470.43716 800.17535,472.05247 797.36983,477.49349 794.90436,477.49349 792.949,477.49349 792.90649,476.09073 791.20617,476.09073 790.48353,476.09073 789.84591,476.77086 789.84591,477.49349 Z"/>
</svg>
